<svg width="65" height="65" viewBox="0 0 65 65" fill="none" xmlns="http://www.w3.org/2000/svg">
<path d="M63.7902 48.458L35.9988 61.1589V22.6649L63.7902 9.97104V48.458Z" fill="#C03A2B"/>
<path d="M1.20984 48.458L29.0012 61.1589V22.6649L1.20984 9.97104V48.458Z" fill="#E64C3C"/>
<path d="M35.9988 22.6649H29.0012V61.1518H35.9988V22.6649Z" fill="#C03A2B"/>
<path d="M54.2751 33.8511L44.7529 38.2033V25.0046L54.2751 20.6524V33.8511Z" fill="#FF57B2"/>
<path d="M10.7249 33.8511L20.247 38.2033V25.0046L10.7249 20.6524V33.8511Z" fill="#FF57B2"/>
<path d="M44.7508 38.9152C44.6171 38.9152 44.4827 38.8768 44.3661 38.8028C44.1627 38.6713 44.0397 38.4465 44.0397 38.204V25.0074C44.0397 24.7286 44.2025 24.4762 44.455 24.3603L53.9821 20.0067C54.2026 19.9064 54.4579 19.9235 54.6627 20.055C54.8661 20.1859 54.9891 20.4113 54.9891 20.6531V33.849C54.9891 34.1278 54.8263 34.3802 54.5738 34.4954L45.0466 38.8505C44.9521 38.8931 44.8511 38.9152 44.7508 38.9152ZM45.462 25.4647V37.0968L53.5668 33.3932V21.761L45.462 25.4647ZM54.278 33.8497H54.2851H54.278Z" fill="black"/>
<path d="M32.5 21.5185C32.5 11.3649 28.5595 6.97571 19.2849 3.84314V9.97104L32.5 21.5185Z" fill="#CDBF87"/>
<path d="M32.5 22.2297C32.3315 22.2297 32.1643 22.17 32.0321 22.054L18.8169 10.5065C18.6626 10.3714 18.5737 10.1766 18.5737 9.97105V3.84315C18.5737 3.61417 18.684 3.39869 18.8703 3.265C19.0566 3.1313 19.2955 3.09574 19.5124 3.16899C29.4983 6.54264 33.2111 11.5156 33.2111 21.5186C33.2111 21.7973 33.0483 22.0505 32.7944 22.1664C32.6998 22.2091 32.5996 22.2297 32.5 22.2297ZM19.996 9.64819L31.754 19.9228C31.3913 11.9253 28.1535 7.80918 19.996 4.84586V9.64819Z" fill="black"/>
<path d="M32.5 22.6678V21.5186C32.5 18.9172 31.2086 16.4631 29.0183 15.0586C22.6479 10.9716 15.2897 8.4222 7.31711 6.82782L1.20984 9.97106L28.9998 22.6685H32.5V22.6678Z" fill="#CDBF87"/>
<path d="M32.5 22.6678V21.5186C32.5 18.9172 33.7914 16.4631 35.9817 15.0586C42.3529 10.9716 49.711 8.4222 57.6836 6.82782L63.7909 9.97106L36.0002 22.6678H32.5Z" fill="#CDBF87"/>
<path d="M44.7515 43.9935C44.4813 43.9935 44.2239 43.8391 44.1044 43.5781C43.9415 43.2204 44.098 42.7987 44.455 42.6359L53.9821 38.283C54.3406 38.1194 54.7615 38.2773 54.9244 38.6336C55.0872 38.9913 54.9308 39.413 54.5738 39.5759L45.0467 43.9287C44.9507 43.9728 44.8497 43.9935 44.7515 43.9935Z" fill="black"/>
<path d="M44.7515 49.0731C44.4813 49.0731 44.2239 48.9188 44.1044 48.6578C43.9415 48.3001 44.098 47.8784 44.455 47.7155L53.9821 43.3619C54.3406 43.1977 54.7615 43.3555 54.9244 43.7125C55.0872 44.0702 54.9308 44.4919 54.5738 44.6548L45.0467 49.0084C44.9507 49.0518 44.8497 49.0731 44.7515 49.0731Z" fill="black"/>
<path d="M20.2492 38.9152C20.1482 38.9152 20.0479 38.8938 19.9533 38.8505L10.4262 34.4969C10.173 34.3817 10.0109 34.1285 10.0109 33.8504V20.6545C10.0109 20.4127 10.1339 20.1873 10.3373 20.0564C10.5407 19.9256 10.7967 19.9078 11.0171 20.0081L20.545 24.3617C20.7982 24.4776 20.9603 24.7301 20.9603 25.0088V38.2047C20.9603 38.4472 20.8373 38.672 20.6339 38.8035C20.5173 38.8768 20.3836 38.9152 20.2492 38.9152ZM11.4324 33.3932L19.538 37.0968V25.4647L11.4324 21.761V33.3932Z" fill="black"/>
<path d="M20.2492 43.9934C20.1504 43.9934 20.0501 43.9728 19.9541 43.9287L10.4262 39.5758C10.0692 39.413 9.91135 38.9913 10.0749 38.6336C10.2378 38.2766 10.6588 38.1194 11.0172 38.283L20.545 42.6359C20.902 42.7987 21.0599 43.2204 20.8963 43.5781C20.7769 43.8391 20.5187 43.9934 20.2492 43.9934Z" fill="black"/>
<path d="M20.2492 49.0731C20.1504 49.0731 20.0501 49.0525 19.9541 49.0084L10.4262 44.6548C10.0692 44.4919 9.91135 44.0702 10.0749 43.7125C10.2378 43.3555 10.6588 43.1984 11.0172 43.3619L20.545 47.7155C20.902 47.8784 21.0599 48.3001 20.8963 48.6578C20.7769 48.9188 20.5187 49.0731 20.2492 49.0731Z" fill="black"/>
<path d="M36.0002 61.8687C35.8665 61.8687 35.7321 61.8303 35.6155 61.7556C35.4121 61.6247 35.2891 61.4 35.2891 61.1575V22.6678C35.2891 22.389 35.4519 22.1365 35.7044 22.0206L63.4943 9.32392C63.7141 9.22365 63.9701 9.24071 64.1749 9.37228C64.3783 9.50384 64.5013 9.72856 64.5013 9.97106V48.4601C64.5013 48.7389 64.3384 48.9913 64.086 49.1065L36.296 61.804C36.2015 61.8473 36.1005 61.8687 36.0002 61.8687ZM36.7113 23.125V60.0503L63.079 48.0029V11.0776L36.7113 23.125ZM63.7902 48.4594H63.7973H63.7902Z" fill="black"/>
<path d="M28.9998 61.8687C28.8995 61.8687 28.7985 61.8474 28.7039 61.804L0.913963 49.1066C0.661508 48.9906 0.498657 48.7382 0.498657 48.4594V9.97106C0.498657 9.72927 0.621685 9.50384 0.825071 9.37299C1.02846 9.24214 1.28447 9.22365 1.50492 9.32463L29.2949 22.0213C29.548 22.1373 29.7102 22.3897 29.7102 22.6685V61.1583C29.7102 61.4008 29.5872 61.6255 29.3838 61.7563C29.2679 61.8303 29.1342 61.8687 28.9998 61.8687ZM1.92094 48.0029L28.2886 60.0503V23.125L1.92094 11.0776V48.0029Z" fill="black"/>
<path d="M36.0002 61.8687H28.9998C28.6072 61.8687 28.2886 61.5508 28.2886 61.1575V22.6677C28.2886 22.2752 28.6072 21.9566 28.9998 21.9566H36.0002C36.3935 21.9566 36.7114 22.2752 36.7114 22.6677V61.1575C36.7114 61.5508 36.3935 61.8687 36.0002 61.8687ZM29.7109 60.4464H35.2891V23.3789H29.7109V60.4464Z" fill="black"/>
<path d="M32.5 23.3789H28.9998C28.8974 23.3789 28.7971 23.3569 28.7039 23.3149L0.913978 10.6175C0.666501 10.5044 0.505072 10.2598 0.498672 9.98741C0.492272 9.71504 0.641611 9.4633 0.88411 9.33814L6.99139 6.1949C7.13433 6.12094 7.29931 6.09747 7.45647 6.13018C16.2177 7.88172 23.3967 10.6068 29.4023 14.4598C31.7874 15.9901 33.2111 18.6285 33.2111 21.5186V22.6678C33.2111 23.061 32.8926 23.3789 32.5 23.3789ZM29.1548 21.9566H31.7889V21.5186C31.7889 19.1156 30.6098 16.9239 28.6342 15.6573C22.8363 11.9374 15.8949 9.29191 7.42092 7.5738L2.83761 9.93265L29.1548 21.9566Z" fill="black"/>
<path d="M36.0003 23.3789H32.5C32.1075 23.3789 31.7889 23.0603 31.7889 22.6677V21.5185C31.7889 18.6285 33.2126 15.9901 35.597 14.4598C41.6033 10.6068 48.7823 7.88171 57.5428 6.13017C57.7021 6.09817 57.865 6.12163 58.0079 6.19488L64.1152 9.33812C64.357 9.46257 64.507 9.71503 64.5006 9.98739C64.4942 10.2598 64.3328 10.5044 64.0853 10.6175L36.2961 23.3149C36.2029 23.3575 36.1019 23.3789 36.0003 23.3789ZM33.2112 21.9566H35.8452L62.1624 9.93264L57.5791 7.57378C49.1066 9.2919 42.1651 11.9366 36.3658 15.6573C34.3902 16.9239 33.2112 19.1156 33.2112 21.5185V21.9566Z" fill="black"/>
</svg>
