<svg width="192" height="192" viewBox="0 0 192 192" fill="none" xmlns="http://www.w3.org/2000/svg">
<path d="M156 156H36C32.8174 156 29.7652 154.736 27.5147 152.485C25.2643 150.235 24 147.183 24 144V60C24 56.8174 25.2643 53.7652 27.5147 51.5147C29.7652 49.2643 32.8174 48 36 48H60L72 30H120L132 48H156C159.183 48 162.235 49.2643 164.485 51.5147C166.736 53.7652 168 56.8174 168 60V144C168 147.183 166.736 150.235 164.485 152.485C162.235 154.736 159.183 156 156 156Z" stroke="#7B8192" stroke-opacity="0.5" stroke-width="12" stroke-linecap="round" stroke-linejoin="round"/>
<path d="M96 126C110.912 126 123 113.912 123 99C123 84.0883 110.912 72 96 72C81.0883 72 69 84.0883 69 99C69 113.912 81.0883 126 96 126Z" stroke="#7B8192" stroke-opacity="0.5" stroke-width="12" stroke-linecap="round" stroke-linejoin="round"/>
<path d="M65.3171 60.5455V78H62.1552V60.5455H65.3171ZM68.6048 78V64.9091H71.5536V67.1335H71.707C71.9798 66.3835 72.4315 65.7983 73.0621 65.3778C73.6928 64.9517 74.4457 64.7386 75.3207 64.7386C76.207 64.7386 76.9542 64.9545 77.5621 65.3864C78.1758 65.8125 78.6076 66.3949 78.8576 67.1335H78.994C79.2837 66.4062 79.7724 65.8267 80.4599 65.3949C81.1531 64.9574 81.9741 64.7386 82.9229 64.7386C84.1275 64.7386 85.1104 65.1193 85.8718 65.8807C86.6332 66.642 87.0139 67.7528 87.0139 69.2131V78H83.9201V69.6903C83.9201 68.8778 83.7042 68.2841 83.2724 67.9091C82.8406 67.5284 82.3121 67.3381 81.6871 67.3381C80.9428 67.3381 80.3604 67.571 79.94 68.0369C79.5252 68.4972 79.3178 69.0966 79.3178 69.8352V78H76.2923V69.5625C76.2923 68.8864 76.0877 68.3466 75.6786 67.9432C75.2752 67.5398 74.7468 67.3381 74.0934 67.3381C73.6502 67.3381 73.2468 67.4517 72.8832 67.679C72.5195 67.9006 72.2298 68.2159 72.0138 68.625C71.7979 69.0284 71.69 69.5 71.69 70.0398V78H68.6048ZM93.9109 78.2642C93.0813 78.2642 92.3342 78.1165 91.6694 77.821C91.0103 77.5199 90.4876 77.0767 90.1012 76.4915C89.7205 75.9062 89.5302 75.1847 89.5302 74.3267C89.5302 73.5881 89.6665 72.9773 89.9393 72.4943C90.212 72.0114 90.5842 71.625 91.0558 71.3352C91.5273 71.0455 92.0586 70.8267 92.6495 70.679C93.2461 70.5256 93.8626 70.4148 94.4989 70.3466C95.266 70.267 95.8881 70.196 96.3654 70.1335C96.8427 70.0653 97.1893 69.9631 97.4052 69.8267C97.6268 69.6847 97.7376 69.4659 97.7376 69.1705V69.1193C97.7376 68.4773 97.5472 67.9801 97.1665 67.6278C96.7859 67.2756 96.2376 67.0994 95.5217 67.0994C94.766 67.0994 94.1665 67.2642 93.7234 67.5938C93.2859 67.9233 92.9904 68.3125 92.837 68.7614L89.9563 68.3523C90.1836 67.5568 90.5586 66.892 91.0813 66.358C91.604 65.8182 92.2433 65.4148 92.9989 65.1477C93.7546 64.875 94.5898 64.7386 95.5046 64.7386C96.1353 64.7386 96.7631 64.8125 97.3881 64.9602C98.0131 65.108 98.5842 65.3523 99.1012 65.6932C99.6183 66.0284 100.033 66.4858 100.346 67.0653C100.664 67.6449 100.823 68.3693 100.823 69.2386V78H97.8569V76.2017H97.7546C97.5671 76.5653 97.3029 76.9062 96.962 77.2244C96.6268 77.5369 96.2035 77.7898 95.6921 77.983C95.1864 78.1705 94.5927 78.2642 93.9109 78.2642ZM94.712 75.9972C95.3313 75.9972 95.8683 75.875 96.3228 75.6307C96.7773 75.3807 97.1268 75.0511 97.3711 74.642C97.6211 74.233 97.7461 73.7869 97.7461 73.304V71.7614C97.6495 71.8409 97.4847 71.9148 97.2518 71.983C97.0245 72.0511 96.7688 72.1108 96.4847 72.1619C96.2006 72.2131 95.9194 72.2585 95.641 72.2983C95.3626 72.3381 95.1211 72.3722 94.9165 72.4006C94.4563 72.4631 94.0444 72.5653 93.6808 72.7074C93.3171 72.8494 93.0302 73.0483 92.82 73.304C92.6097 73.554 92.5046 73.8778 92.5046 74.2756C92.5046 74.8438 92.712 75.2727 93.1268 75.5625C93.5415 75.8523 94.07 75.9972 94.712 75.9972ZM109.618 83.1818C108.51 83.1818 107.559 83.0313 106.763 82.7301C105.968 82.4347 105.328 82.0369 104.846 81.5369C104.363 81.0369 104.027 80.483 103.84 79.875L106.618 79.2017C106.743 79.4574 106.925 79.7102 107.164 79.9602C107.402 80.2159 107.723 80.4261 108.127 80.5909C108.536 80.7614 109.05 80.8466 109.669 80.8466C110.544 80.8466 111.269 80.6335 111.843 80.2074C112.417 79.7869 112.703 79.0938 112.703 78.1278V75.6477H112.55C112.391 75.9659 112.158 76.2926 111.851 76.6278C111.55 76.9631 111.15 77.2443 110.65 77.4716C110.155 77.6989 109.533 77.8125 108.783 77.8125C107.777 77.8125 106.865 77.5767 106.047 77.1051C105.235 76.6278 104.587 75.9176 104.104 74.9744C103.627 74.0256 103.388 72.8381 103.388 71.4119C103.388 69.9744 103.627 68.7614 104.104 67.7727C104.587 66.7784 105.238 66.0256 106.056 65.5142C106.874 64.9972 107.786 64.7386 108.792 64.7386C109.559 64.7386 110.189 64.8693 110.684 65.1307C111.184 65.3864 111.581 65.696 111.877 66.0597C112.172 66.4176 112.397 66.7557 112.55 67.0739H112.721V64.9091H115.763V78.2131C115.763 79.3324 115.496 80.2585 114.962 80.9915C114.428 81.7244 113.698 82.2727 112.772 82.6364C111.846 83 110.794 83.1818 109.618 83.1818ZM109.644 75.392C110.297 75.392 110.854 75.233 111.314 74.9148C111.775 74.5966 112.124 74.1392 112.363 73.5426C112.601 72.946 112.721 72.2301 112.721 71.3949C112.721 70.571 112.601 69.8494 112.363 69.2301C112.13 68.6108 111.783 68.1307 111.323 67.7898C110.868 67.4432 110.309 67.2699 109.644 67.2699C108.956 67.2699 108.382 67.4489 107.922 67.8068C107.462 68.1648 107.115 68.6562 106.882 69.2812C106.65 69.9006 106.533 70.6051 106.533 71.3949C106.533 72.196 106.65 72.8977 106.882 73.5C107.121 74.0966 107.471 74.5625 107.931 74.8977C108.397 75.2273 108.968 75.392 109.644 75.392ZM124.721 78.2557C123.408 78.2557 122.275 77.983 121.32 77.4375C120.371 76.8864 119.641 76.108 119.13 75.1023C118.618 74.0909 118.363 72.9006 118.363 71.5312C118.363 70.1847 118.618 69.0028 119.13 67.9858C119.647 66.9631 120.368 66.1676 121.294 65.5994C122.221 65.0256 123.309 64.7386 124.559 64.7386C125.365 64.7386 126.127 64.8693 126.843 65.1307C127.564 65.3864 128.201 65.7841 128.752 66.3239C129.309 66.8636 129.746 67.5511 130.064 68.3864C130.382 69.2159 130.542 70.2045 130.542 71.3523V72.2983H119.811V70.2188H127.584C127.578 69.6278 127.451 69.1023 127.201 68.642C126.951 68.1761 126.601 67.8097 126.152 67.5426C125.709 67.2756 125.192 67.142 124.601 67.142C123.971 67.142 123.417 67.2955 122.939 67.6023C122.462 67.9034 122.09 68.3011 121.823 68.7955C121.561 69.2841 121.428 69.821 121.422 70.4062V72.2216C121.422 72.983 121.561 73.6364 121.84 74.1818C122.118 74.7216 122.507 75.1364 123.007 75.4261C123.507 75.7102 124.093 75.8523 124.763 75.8523C125.212 75.8523 125.618 75.7898 125.982 75.6648C126.346 75.5341 126.661 75.3438 126.928 75.0938C127.195 74.8438 127.397 74.5341 127.533 74.1648L130.414 74.4886C130.232 75.25 129.885 75.9148 129.374 76.483C128.868 77.0455 128.221 77.483 127.431 77.7955C126.641 78.1023 125.738 78.2557 124.721 78.2557ZM81.4986 99.3295V107H78.4134V93.9091H81.3622V96.1335H81.5156C81.8168 95.4006 82.2969 94.8182 82.956 94.3864C83.6207 93.9545 84.4418 93.7386 85.419 93.7386C86.3224 93.7386 87.1094 93.9318 87.7798 94.3182C88.456 94.7045 88.9787 95.2642 89.348 95.9972C89.723 96.7301 89.9077 97.6193 89.902 98.6648V107H86.8168V99.142C86.8168 98.267 86.5895 97.5824 86.1349 97.0881C85.6861 96.5937 85.0639 96.3466 84.2685 96.3466C83.7287 96.3466 83.2486 96.4659 82.8281 96.7045C82.4134 96.9375 82.0866 97.2756 81.848 97.7188C81.6151 98.1619 81.4986 98.6989 81.4986 99.3295ZM98.7486 107.256C97.4702 107.256 96.3622 106.974 95.4247 106.412C94.4872 105.849 93.7599 105.062 93.2429 104.051C92.7315 103.04 92.4759 101.858 92.4759 100.506C92.4759 99.1534 92.7315 97.9687 93.2429 96.9517C93.7599 95.9347 94.4872 95.1449 95.4247 94.5824C96.3622 94.0199 97.4702 93.7386 98.7486 93.7386C100.027 93.7386 101.135 94.0199 102.072 94.5824C103.01 95.1449 103.734 95.9347 104.246 96.9517C104.763 97.9687 105.021 99.1534 105.021 100.506C105.021 101.858 104.763 103.04 104.246 104.051C103.734 105.062 103.01 105.849 102.072 106.412C101.135 106.974 100.027 107.256 98.7486 107.256ZM98.7656 104.784C99.4588 104.784 100.038 104.594 100.504 104.213C100.97 103.827 101.317 103.31 101.544 102.662C101.777 102.014 101.893 101.293 101.893 100.497C101.893 99.696 101.777 98.9716 101.544 98.3239C101.317 97.6705 100.97 97.1506 100.504 96.7642C100.038 96.3778 99.4588 96.1847 98.7656 96.1847C98.0554 96.1847 97.4645 96.3778 96.9929 96.7642C96.527 97.1506 96.1776 97.6705 95.9446 98.3239C95.7173 98.9716 95.6037 99.696 95.6037 100.497C95.6037 101.293 95.7173 102.014 95.9446 102.662C96.1776 103.31 96.527 103.827 96.9929 104.213C97.4645 104.594 98.0554 104.784 98.7656 104.784ZM114.177 93.9091V96.2955H106.651V93.9091H114.177ZM108.509 90.7727H111.594V103.062C111.594 103.477 111.657 103.795 111.782 104.017C111.913 104.233 112.083 104.381 112.293 104.46C112.504 104.54 112.737 104.58 112.992 104.58C113.185 104.58 113.362 104.565 113.521 104.537C113.685 104.509 113.81 104.483 113.896 104.46L114.415 106.872C114.251 106.929 114.015 106.991 113.708 107.06C113.407 107.128 113.038 107.168 112.6 107.179C111.827 107.202 111.131 107.085 110.512 106.83C109.893 106.568 109.401 106.165 109.038 105.619C108.68 105.074 108.504 104.392 108.509 103.574V90.7727ZM50.1296 136.264C49.3001 136.264 48.5529 136.116 47.8881 135.821C47.229 135.52 46.7063 135.077 46.32 134.491C45.9393 133.906 45.7489 133.185 45.7489 132.327C45.7489 131.588 45.8853 130.977 46.158 130.494C46.4308 130.011 46.8029 129.625 47.2745 129.335C47.7461 129.045 48.2773 128.827 48.8683 128.679C49.4648 128.526 50.0813 128.415 50.7177 128.347C51.4847 128.267 52.1069 128.196 52.5842 128.134C53.0614 128.065 53.408 127.963 53.6239 127.827C53.8455 127.685 53.9563 127.466 53.9563 127.17V127.119C53.9563 126.477 53.766 125.98 53.3853 125.628C53.0046 125.276 52.4563 125.099 51.7404 125.099C50.9847 125.099 50.3853 125.264 49.9421 125.594C49.5046 125.923 49.2092 126.312 49.0558 126.761L46.1751 126.352C46.4023 125.557 46.7773 124.892 47.3001 124.358C47.8228 123.818 48.462 123.415 49.2177 123.148C49.9734 122.875 50.8086 122.739 51.7234 122.739C52.354 122.739 52.9819 122.812 53.6069 122.96C54.2319 123.108 54.8029 123.352 55.32 123.693C55.837 124.028 56.2518 124.486 56.5643 125.065C56.8825 125.645 57.0415 126.369 57.0415 127.239V136H54.0756V134.202H53.9734C53.7859 134.565 53.5217 134.906 53.1808 135.224C52.8455 135.537 52.4222 135.79 51.9109 135.983C51.4052 136.17 50.8114 136.264 50.1296 136.264ZM50.9308 133.997C51.5501 133.997 52.087 133.875 52.5415 133.631C52.9961 133.381 53.3455 133.051 53.5898 132.642C53.8398 132.233 53.9648 131.787 53.9648 131.304V129.761C53.8683 129.841 53.7035 129.915 53.4705 129.983C53.2433 130.051 52.9876 130.111 52.7035 130.162C52.4194 130.213 52.1381 130.259 51.8597 130.298C51.5813 130.338 51.3398 130.372 51.1353 130.401C50.6751 130.463 50.2631 130.565 49.8995 130.707C49.5359 130.849 49.2489 131.048 49.0387 131.304C48.8285 131.554 48.7234 131.878 48.7234 132.276C48.7234 132.844 48.9308 133.273 49.3455 133.562C49.7603 133.852 50.2887 133.997 50.9308 133.997ZM71.3683 122.909L66.7063 136H63.2972L58.6353 122.909H61.9251L64.9336 132.634H65.07L68.087 122.909H71.3683ZM76.8952 136.264C76.0657 136.264 75.3185 136.116 74.6538 135.821C73.9947 135.52 73.4719 135.077 73.0856 134.491C72.7049 133.906 72.5146 133.185 72.5146 132.327C72.5146 131.588 72.6509 130.977 72.9237 130.494C73.1964 130.011 73.5685 129.625 74.0401 129.335C74.5117 129.045 75.043 128.827 75.6339 128.679C76.2305 128.526 76.8469 128.415 77.4833 128.347C78.2504 128.267 78.8725 128.196 79.3498 128.134C79.8271 128.065 80.1737 127.963 80.3896 127.827C80.6112 127.685 80.7219 127.466 80.7219 127.17V127.119C80.7219 126.477 80.5316 125.98 80.1509 125.628C79.7702 125.276 79.2219 125.099 78.506 125.099C77.7504 125.099 77.1509 125.264 76.7077 125.594C76.2702 125.923 75.9748 126.312 75.8214 126.761L72.9407 126.352C73.168 125.557 73.543 124.892 74.0657 124.358C74.5884 123.818 75.2276 123.415 75.9833 123.148C76.739 122.875 77.5742 122.739 78.489 122.739C79.1197 122.739 79.7475 122.812 80.3725 122.96C80.9975 123.108 81.5685 123.352 82.0856 123.693C82.6026 124.028 83.0174 124.486 83.3299 125.065C83.6481 125.645 83.8072 126.369 83.8072 127.239V136H80.8413V134.202H80.739C80.5515 134.565 80.2873 134.906 79.9464 135.224C79.6112 135.537 79.1879 135.79 78.6765 135.983C78.1708 136.17 77.5771 136.264 76.8952 136.264ZM77.6964 133.997C78.3157 133.997 78.8526 133.875 79.3072 133.631C79.7617 133.381 80.1112 133.051 80.3555 132.642C80.6055 132.233 80.7305 131.787 80.7305 131.304V129.761C80.6339 129.841 80.4691 129.915 80.2362 129.983C80.0089 130.051 79.7532 130.111 79.4691 130.162C79.185 130.213 78.9038 130.259 78.6254 130.298C78.3469 130.338 78.1055 130.372 77.9009 130.401C77.4407 130.463 77.0288 130.565 76.6651 130.707C76.3015 130.849 76.0146 131.048 75.8043 131.304C75.5941 131.554 75.489 131.878 75.489 132.276C75.489 132.844 75.6964 133.273 76.1112 133.562C76.5259 133.852 77.0543 133.997 77.6964 133.997ZM86.9094 136V122.909H89.9947V136H86.9094ZM88.4606 121.051C87.9719 121.051 87.5515 120.889 87.1992 120.565C86.8469 120.236 86.6708 119.841 86.6708 119.381C86.6708 118.915 86.8469 118.52 87.1992 118.196C87.5515 117.866 87.9719 117.702 88.4606 117.702C88.9549 117.702 89.3754 117.866 89.7219 118.196C90.0742 118.52 90.2504 118.915 90.2504 119.381C90.2504 119.841 90.0742 120.236 89.7219 120.565C89.3754 120.889 88.9549 121.051 88.4606 121.051ZM96.2525 118.545V136H93.1673V118.545H96.2525ZM103.192 136.264C102.363 136.264 101.615 136.116 100.951 135.821C100.292 135.52 99.7688 135.077 99.3825 134.491C99.0018 133.906 98.8114 133.185 98.8114 132.327C98.8114 131.588 98.9478 130.977 99.2205 130.494C99.4933 130.011 99.8654 129.625 100.337 129.335C100.809 129.045 101.34 128.827 101.931 128.679C102.527 128.526 103.144 128.415 103.78 128.347C104.547 128.267 105.169 128.196 105.647 128.134C106.124 128.065 106.471 127.963 106.686 127.827C106.908 127.685 107.019 127.466 107.019 127.17V127.119C107.019 126.477 106.828 125.98 106.448 125.628C106.067 125.276 105.519 125.099 104.803 125.099C104.047 125.099 103.448 125.264 103.005 125.594C102.567 125.923 102.272 126.312 102.118 126.761L99.2376 126.352C99.4648 125.557 99.8398 124.892 100.363 124.358C100.885 123.818 101.525 123.415 102.28 123.148C103.036 122.875 103.871 122.739 104.786 122.739C105.417 122.739 106.044 122.812 106.669 122.96C107.294 123.108 107.865 123.352 108.382 123.693C108.9 124.028 109.314 124.486 109.627 125.065C109.945 125.645 110.104 126.369 110.104 127.239V136H107.138V134.202H107.036C106.848 134.565 106.584 134.906 106.243 135.224C105.908 135.537 105.485 135.79 104.973 135.983C104.468 136.17 103.874 136.264 103.192 136.264ZM103.993 133.997C104.613 133.997 105.15 133.875 105.604 133.631C106.059 133.381 106.408 133.051 106.652 132.642C106.902 132.233 107.027 131.787 107.027 131.304V129.761C106.931 129.841 106.766 129.915 106.533 129.983C106.306 130.051 106.05 130.111 105.766 130.162C105.482 130.213 105.201 130.259 104.922 130.298C104.644 130.338 104.402 130.372 104.198 130.401C103.738 130.463 103.326 130.565 102.962 130.707C102.598 130.849 102.311 131.048 102.101 131.304C101.891 131.554 101.786 131.878 101.786 132.276C101.786 132.844 101.993 133.273 102.408 133.562C102.823 133.852 103.351 133.997 103.993 133.997ZM113.343 136V118.545H116.428V125.074H116.556C116.715 124.756 116.939 124.418 117.229 124.06C117.519 123.696 117.911 123.386 118.405 123.131C118.9 122.869 119.53 122.739 120.297 122.739C121.309 122.739 122.221 122.997 123.033 123.514C123.851 124.026 124.499 124.784 124.976 125.79C125.459 126.79 125.701 128.017 125.701 129.472C125.701 130.909 125.465 132.131 124.993 133.136C124.522 134.142 123.88 134.909 123.067 135.438C122.255 135.966 121.334 136.23 120.306 136.23C119.556 136.23 118.934 136.105 118.439 135.855C117.945 135.605 117.547 135.304 117.246 134.952C116.951 134.594 116.721 134.256 116.556 133.938H116.377V136H113.343ZM116.368 129.455C116.368 130.301 116.488 131.043 116.726 131.679C116.971 132.315 117.32 132.812 117.775 133.17C118.235 133.523 118.792 133.699 119.445 133.699C120.127 133.699 120.698 133.517 121.158 133.153C121.618 132.784 121.965 132.281 122.198 131.645C122.436 131.003 122.556 130.273 122.556 129.455C122.556 128.642 122.439 127.92 122.206 127.29C121.973 126.659 121.627 126.165 121.167 125.807C120.706 125.449 120.132 125.27 119.445 125.27C118.786 125.27 118.226 125.443 117.766 125.79C117.306 126.136 116.956 126.622 116.718 127.247C116.485 127.872 116.368 128.608 116.368 129.455ZM131.409 118.545V136H128.324V118.545H131.409ZM140.377 136.256C139.064 136.256 137.931 135.983 136.976 135.438C136.027 134.886 135.297 134.108 134.786 133.102C134.275 132.091 134.019 130.901 134.019 129.531C134.019 128.185 134.275 127.003 134.786 125.986C135.303 124.963 136.025 124.168 136.951 123.599C137.877 123.026 138.965 122.739 140.215 122.739C141.022 122.739 141.783 122.869 142.499 123.131C143.221 123.386 143.857 123.784 144.408 124.324C144.965 124.864 145.402 125.551 145.721 126.386C146.039 127.216 146.198 128.205 146.198 129.352V130.298H135.468V128.219H143.24C143.235 127.628 143.107 127.102 142.857 126.642C142.607 126.176 142.257 125.81 141.809 125.543C141.365 125.276 140.848 125.142 140.257 125.142C139.627 125.142 139.073 125.295 138.596 125.602C138.118 125.903 137.746 126.301 137.479 126.795C137.218 127.284 137.084 127.821 137.078 128.406V130.222C137.078 130.983 137.218 131.636 137.496 132.182C137.775 132.722 138.164 133.136 138.664 133.426C139.164 133.71 139.749 133.852 140.419 133.852C140.868 133.852 141.275 133.79 141.638 133.665C142.002 133.534 142.317 133.344 142.584 133.094C142.851 132.844 143.053 132.534 143.189 132.165L146.07 132.489C145.888 133.25 145.542 133.915 145.03 134.483C144.525 135.045 143.877 135.483 143.087 135.795C142.297 136.102 141.394 136.256 140.377 136.256Z" fill="white"/>
</svg>
